<svg width="24.000000" height="24.000000" viewBox="0 0 24 24" fill="none" xmlns="http://www.w3.org/2000/svg" xmlns:xlink="http://www.w3.org/1999/xlink">
    <desc>
        Created with Pixso.
    </desc>
    <defs/>
    <path id="Vector" d="M16.4008 4.07227C16.3043 3.97583 16.1479 3.97583 16.0514 4.07227L13.6725 6.45142L17.5487 10.3276L19.9276 7.94849C20.0242 7.85205 20.0242 7.6958 19.9276 7.59937L16.4008 4.07227ZM16.1345 11.7417L12.2583 7.86548L4.47412 15.6497C4.4325 15.6914 4.4071 15.7466 4.40259 15.8054L4.08655 19.9136L8.1947 19.5974C8.25342 19.593 8.30872 19.5676 8.35034 19.5259L16.1345 11.7417ZM14.6372 2.6582C15.5148 1.78052 16.9374 1.78052 17.8149 2.6582L21.3419 6.18506C22.2194 7.0625 22.2194 8.48535 21.3419 9.36279L9.76465 20.9399C9.38525 21.3193 8.88293 21.5505 8.34802 21.5916L3.07666 21.9971C2.78564 22.0195 2.49927 21.9136 2.29285 21.707C2.08643 21.5007 1.98059 21.2144 2.00293 20.9233L2.40845 15.6519C2.44958 15.1172 2.68066 14.6147 3.05994 14.2354L14.6372 2.6582Z" fill="#00B2A9" fill-opacity="1.000000" fill-rule="evenodd"/>
</svg>
